ISO-10303-21;
HEADER;
/* Generated by software containing ST-Developer
 * from STEP Tools, Inc. (www.steptools.com) 
 */

FILE_DESCRIPTION(
/* description */ ('KiCad electronic assembly'),
/* implementation_level */ '2;1');

FILE_NAME(
/* name */ 'Calculator bottom.step',
/* time_stamp */ '2026-08-28T12:07:35-07:00',
/* author */ (''),
/* organization */ (''),
/* preprocessor_version */ 'ST-DEVELOPER v20.1',
/* originating_system */ 'Autodesk Translation Framework v15.8.0.0',
/* authorisation */ '');

FILE_SCHEMA (('AUTOMOTIVE_DESIGN { 1 0 10303 214 3 1 1 }'));
ENDSEC;

DATA;
#10=MECHANICAL_DESIGN_GEOMETRIC_PRESENTATION_REPRESENTATION('',(#17),#1095);
#11=ITEM_DEFINED_TRANSFORMATION($,$,#609,#663);
#12=(
REPRESENTATION_RELATIONSHIP($,$,#1106,#1105)
REPRESENTATION_RELATIONSHIP_WITH_TRANSFORMATION(#11)
SHAPE_REPRESENTATION_RELATIONSHIP()
);
#13=CONTEXT_DEPENDENT_SHAPE_REPRESENTATION(#12,#1104);
#14=NEXT_ASSEMBLY_USAGE_OCCURRENCE('Bottom:1','Bottom:1','Bottom:1',#1108,
#1109,'Bottom:1');
#15=SHAPE_REPRESENTATION_RELATIONSHIP('SRR','None',#1106,#16);
#16=ADVANCED_BREP_SHAPE_REPRESENTATION('',(#18),#1094);
#17=STYLED_ITEM('',(#1122),#18);
#18=MANIFOLD_SOLID_BREP('Bottom',#595);
#19=B_SPLINE_SURFACE_WITH_KNOTS('',3,1,((#1034,#1035),(#1036,#1037),(#1038,
#1039),(#1040,#1041)),.UNSPECIFIED.,.F.,.F.,.F.,(4,4),(2,2),(1.54743273168505,
1.57079634615089),(0.,3.5),.UNSPECIFIED.);
#20=B_SPLINE_SURFACE_WITH_KNOTS('',3,1,((#1043,#1044),(#1045,#1046),(#1047,
#1048),(#1049,#1050),(#1051,#1052),(#1053,#1054),(#1055,#1056)),
 .UNSPECIFIED.,.F.,.F.,.F.,(4,3,4),(2,2),(-1.57102989451644,-1.5707962649584,
-1.54743267478351),(0.,3.5),.UNSPECIFIED.);
#21=B_SPLINE_SURFACE_WITH_KNOTS('',3,1,((#1058,#1059),(#1060,#1061),(#1062,
#1063),(#1064,#1065),(#1066,#1067),(#1068,#1069),(#1070,#1071)),
 .UNSPECIFIED.,.F.,.F.,.F.,(4,3,4),(2,2),(6.57399066472616E-8,0.773716398712477,
1.54743273168505),(0.,3.5),.UNSPECIFIED.);
#22=B_SPLINE_SURFACE_WITH_KNOTS('',3,1,((#1075,#1076),(#1077,#1078),(#1079,
#1080),(#1081,#1082),(#1083,#1084),(#1085,#1086),(#1087,#1088)),
 .UNSPECIFIED.,.F.,.F.,.F.,(4,3,4),(2,2),(-1.54743267478351,-0.773716340699944,
-6.61637829920952E-9),(0.,3.5),.UNSPECIFIED.);
#23=B_SPLINE_CURVE_WITH_KNOTS('',3,(#942,#943,#944,#945,#946,#947),
 .UNSPECIFIED.,.F.,.F.,(4,2,4),(-0.0226750200216172,-0.0113375276642234,
0.),.UNSPECIFIED.);
#24=B_SPLINE_CURVE_WITH_KNOTS('',3,(#949,#950,#951,#952,#953,#954,#955),
 .UNSPECIFIED.,.F.,.F.,(4,3,4),(-1.49720463240719,-0.748602316203594,0.),
 .UNSPECIFIED.);
#25=B_SPLINE_CURVE_WITH_KNOTS('',3,(#959,#960,#961,#962,#963,#964,#965),
 .UNSPECIFIED.,.F.,.F.,(4,3,4),(-1.49694220917277,-0.748471104586384,0.),
 .UNSPECIFIED.);
#26=B_SPLINE_CURVE_WITH_KNOTS('',3,(#966,#967,#968,#969,#970,#971),
 .UNSPECIFIED.,.F.,.F.,(4,2,4),(-0.0226750184111541,-0.0113375071912497,
0.),.UNSPECIFIED.);
#27=B_SPLINE_CURVE_WITH_KNOTS('',3,(#983,#984,#985,#986,#987,#988),
 .UNSPECIFIED.,.F.,.F.,(4,2,4),(-0.0226750496892798,-0.0113375424975678,
-3.1277201273384E-8),.UNSPECIFIED.);
#28=B_SPLINE_CURVE_WITH_KNOTS('',3,(#990,#991,#992,#993,#994,#995,#996),
 .UNSPECIFIED.,.F.,.F.,(4,3,4),(-1.49720460650446,-0.748602303252229,0.),
 .UNSPECIFIED.);
#29=B_SPLINE_CURVE_WITH_KNOTS('',3,(#1000,#1001,#1002,#1003,#1004,#1005,
#1006),.UNSPECIFIED.,.F.,.F.,(4,3,4),(-1.49694219207679,-0.748471096038396,
0.),.UNSPECIFIED.);
#30=B_SPLINE_CURVE_WITH_KNOTS('',3,(#1008,#1009,#1010,#1011,#1012,#1013),
 .UNSPECIFIED.,.F.,.F.,(4,2,4),(-0.0226750218884192,-0.0114508681551177,
0.),.UNSPECIFIED.);
#31=FACE_BOUND('',#85,.T.);
#32=FACE_BOUND('',#88,.T.);
#33=FACE_BOUND('',#102,.T.);
#34=FACE_BOUND('',#110,.T.);
#35=FACE_BOUND('',#117,.T.);
#36=PLANE('',#613);
#37=PLANE('',#618);
#38=PLANE('',#625);
#39=PLANE('',#627);
#40=PLANE('',#632);
#41=PLANE('',#636);
#42=PLANE('',#637);
#43=PLANE('',#640);
#44=PLANE('',#643);
#45=PLANE('',#646);
#46=PLANE('',#651);
#47=PLANE('',#654);
#48=PLANE('',#657);
#49=PLANE('',#659);
#50=PLANE('',#661);
#51=PLANE('',#662);
#52=FACE_OUTER_BOUND('',#83,.T.);
#53=FACE_OUTER_BOUND('',#84,.T.);
#54=FACE_OUTER_BOUND('',#86,.T.);
#55=FACE_OUTER_BOUND('',#87,.T.);
#56=FACE_OUTER_BOUND('',#89,.T.);
#57=FACE_OUTER_BOUND('',#90,.T.);
#58=FACE_OUTER_BOUND('',#91,.T.);
#59=FACE_OUTER_BOUND('',#92,.T.);
#60=FACE_OUTER_BOUND('',#93,.T.);
#61=FACE_OUTER_BOUND('',#94,.T.);
#62=FACE_OUTER_BOUND('',#95,.T.);
#63=FACE_OUTER_BOUND('',#96,.T.);
#64=FACE_OUTER_BOUND('',#97,.T.);
#65=FACE_OUTER_BOUND('',#98,.T.);
#66=FACE_OUTER_BOUND('',#99,.T.);
#67=FACE_OUTER_BOUND('',#100,.T.);
#68=FACE_OUTER_BOUND('',#101,.T.);
#69=FACE_OUTER_BOUND('',#103,.T.);
#70=FACE_OUTER_BOUND('',#104,.T.);
#71=FACE_OUTER_BOUND('',#105,.T.);
#72=FACE_OUTER_BOUND('',#106,.T.);
#73=FACE_OUTER_BOUND('',#107,.T.);
#74=FACE_OUTER_BOUND('',#108,.T.);
#75=FACE_OUTER_BOUND('',#109,.T.);
#76=FACE_OUTER_BOUND('',#111,.T.);
#77=FACE_OUTER_BOUND('',#112,.T.);
#78=FACE_OUTER_BOUND('',#113,.T.);
#79=FACE_OUTER_BOUND('',#114,.T.);
#80=FACE_OUTER_BOUND('',#115,.T.);
#81=FACE_OUTER_BOUND('',#116,.T.);
#82=FACE_OUTER_BOUND('',#118,.T.);
#83=EDGE_LOOP('',(#385,#386,#387,#388));
#84=EDGE_LOOP('',(#389));
#85=EDGE_LOOP('',(#390));
#86=EDGE_LOOP('',(#391,#392,#393,#394));
#87=EDGE_LOOP('',(#395));
#88=EDGE_LOOP('',(#396));
#89=EDGE_LOOP('',(#397,#398,#399,#400,#401,#402,#403,#404,#405,#406,#407,
#408));
#90=EDGE_LOOP('',(#409,#410,#411,#412,#413));
#91=EDGE_LOOP('',(#414,#415,#416,#417,#418,#419,#420,#421,#422,#423));
#92=EDGE_LOOP('',(#424,#425,#426,#427));
#93=EDGE_LOOP('',(#428,#429,#430,#431,#432,#433));
#94=EDGE_LOOP('',(#434,#435,#436,#437));
#95=EDGE_LOOP('',(#438,#439,#440,#441,#442));
#96=EDGE_LOOP('',(#443,#444,#445,#446,#447,#448,#449,#450,#451,#452));
#97=EDGE_LOOP('',(#453,#454,#455,#456));
#98=EDGE_LOOP('',(#457,#458,#459,#460));
#99=EDGE_LOOP('',(#461,#462,#463,#464,#465,#466));
#100=EDGE_LOOP('',(#467,#468,#469,#470));
#101=EDGE_LOOP('',(#471,#472,#473,#474,#475,#476,#477,#478,#479,#480));
#102=EDGE_LOOP('',(#481,#482,#483,#484,#485,#486,#487,#488));
#103=EDGE_LOOP('',(#489,#490,#491,#492));
#104=EDGE_LOOP('',(#493,#494,#495,#496));
#105=EDGE_LOOP('',(#497,#498,#499,#500));
#106=EDGE_LOOP('',(#501,#502,#503,#504,#505,#506,#507,#508,#509,#510));
#107=EDGE_LOOP('',(#511,#512,#513,#514));
#108=EDGE_LOOP('',(#515,#516,#517,#518));
#109=EDGE_LOOP('',(#519,#520,#521,#522));
#110=EDGE_LOOP('',(#523));
#111=EDGE_LOOP('',(#524,#525,#526,#527));
#112=EDGE_LOOP('',(#528,#529,#530,#531));
#113=EDGE_LOOP('',(#532,#533,#534,#535));
#114=EDGE_LOOP('',(#536,#537,#538,#539));
#115=EDGE_LOOP('',(#540,#541,#542,#543));
#116=EDGE_LOOP('',(#544,#545,#546,#547));
#117=EDGE_LOOP('',(#548));
#118=EDGE_LOOP('',(#549,#550,#551,#552));
#119=LINE('',#832,#169);
#120=LINE('',#841,#170);
#121=LINE('',#848,#171);
#122=LINE('',#852,#172);
#123=LINE('',#855,#173);
#124=LINE('',#859,#174);
#125=LINE('',#863,#175);
#126=LINE('',#866,#176);
#127=LINE('',#869,#177);
#128=LINE('',#871,#178);
#129=LINE('',#873,#179);
#130=LINE('',#877,#180);
#131=LINE('',#881,#181);
#132=LINE('',#882,#182);
#133=LINE('',#885,#183);
#134=LINE('',#889,#184);
#135=LINE('',#891,#185);
#136=LINE('',#893,#186);
#137=LINE('',#894,#187);
#138=LINE('',#898,#188);
#139=LINE('',#902,#189);
#140=LINE('',#907,#190);
#141=LINE('',#910,#191);
#142=LINE('',#913,#192);
#143=LINE('',#915,#193);
#144=LINE('',#916,#194);
#145=LINE('',#920,#195);
#146=LINE('',#923,#196);
#147=LINE('',#924,#197);
#148=LINE('',#928,#198);
#149=LINE('',#932,#199);
#150=LINE('',#936,#200);
#151=LINE('',#940,#201);
#152=LINE('',#957,#202);
#153=LINE('',#975,#203);
#154=LINE('',#977,#204);
#155=LINE('',#998,#205);
#156=LINE('',#1015,#206);
#157=LINE('',#1019,#207);
#158=LINE('',#1022,#208);
#159=LINE('',#1024,#209);
#160=LINE('',#1025,#210);
#161=LINE('',#1027,#211);
#162=LINE('',#1029,#212);
#163=LINE('',#1031,#213);
#164=LINE('',#1033,#214);
#165=LINE('',#1042,#215);
#166=LINE('',#1057,#216);
#167=LINE('',#1072,#217);
#168=LINE('',#1074,#218);
#169=VECTOR('',#672,3.00000000000001);
#170=VECTOR('',#683,3.00000000000001);
#171=VECTOR('',#692,1.35);
#172=VECTOR('',#695,10.);
#173=VECTOR('',#698,1.35);
#174=VECTOR('',#701,10.);
#175=VECTOR('',#706,10.);
#176=VECTOR('',#709,10.);
#177=VECTOR('',#712,10.);
#178=VECTOR('',#713,10.);
#179=VECTOR('',#714,10.);
#180=VECTOR('',#717,10.);
#181=VECTOR('',#720,10.);
#182=VECTOR('',#721,10.);
#183=VECTOR('',#724,10.);
#184=VECTOR('',#729,10.);
#185=VECTOR('',#730,10.);
#186=VECTOR('',#731,10.);
#187=VECTOR('',#732,10.);
#188=VECTOR('',#735,10.);
#189=VECTOR('',#742,10.);
#190=VECTOR('',#747,10.);
#191=VECTOR('',#750,10.);
#192=VECTOR('',#753,10.);
#193=VECTOR('',#754,10.);
#194=VECTOR('',#755,10.);
#195=VECTOR('',#760,10.);
#196=VECTOR('',#763,10.);
#197=VECTOR('',#764,10.);
#198=VECTOR('',#769,10.);
#199=VECTOR('',#772,10.);
#200=VECTOR('',#775,10.);
#201=VECTOR('',#778,10.);
#202=VECTOR('',#779,10.);
#203=VECTOR('',#784,10.);
#204=VECTOR('',#787,10.);
#205=VECTOR('',#794,10.);
#206=VECTOR('',#795,10.);
#207=VECTOR('',#798,10.);
#208=VECTOR('',#801,10.);
#209=VECTOR('',#804,10.);
#210=VECTOR('',#805,10.);
#211=VECTOR('',#808,10.);
#212=VECTOR('',#811,10.);
#213=VECTOR('',#814,10.);
#214=VECTOR('',#817,10.);
#215=VECTOR('',#818,10.);
#216=VECTOR('',#819,10.);
#217=VECTOR('',#820,10.);
#218=VECTOR('',#823,10.);
#219=CIRCLE('',#611,3.00000000000001);
#220=CIRCLE('',#612,3.00000000000001);
#221=CIRCLE('',#614,1.35);
#222=CIRCLE('',#616,3.00000000000001);
#223=CIRCLE('',#617,3.00000000000001);
#224=CIRCLE('',#619,1.35);
#225=CIRCLE('',#621,1.35);
#226=CIRCLE('',#622,1.35);
#227=CIRCLE('',#623,1.35);
#228=CIRCLE('',#624,1.35);
#229=CIRCLE('',#626,3.5);
#230=CIRCLE('',#628,7.12500031001704);
#231=CIRCLE('',#629,7.125000310017);
#232=CIRCLE('',#631,3.5);
#233=CIRCLE('',#634,3.5);
#234=CIRCLE('',#635,3.5);
#235=CIRCLE('',#638,7.12500031001);
#236=CIRCLE('',#639,7.125000310017);
#237=CIRCLE('',#642,7.125000310017);
#238=CIRCLE('',#645,7.12500031001704);
#239=CIRCLE('',#647,9.625000310017);
#240=CIRCLE('',#648,9.62500031001703);
#241=CIRCLE('',#649,7.12500031001);
#242=CIRCLE('',#650,7.125000310017);
#243=CIRCLE('',#655,9.62500031001703);
#244=CIRCLE('',#656,9.625000310017);
#245=VERTEX_POINT('',#829);
#246=VERTEX_POINT('',#831);
#247=VERTEX_POINT('',#835);
#248=VERTEX_POINT('',#838);
#249=VERTEX_POINT('',#840);
#250=VERTEX_POINT('',#844);
#251=VERTEX_POINT('',#847);
#252=VERTEX_POINT('',#849);
#253=VERTEX_POINT('',#851);
#254=VERTEX_POINT('',#853);
#255=VERTEX_POINT('',#856);
#256=VERTEX_POINT('',#858);
#257=VERTEX_POINT('',#862);
#258=VERTEX_POINT('',#864);
#259=VERTEX_POINT('',#868);
#260=VERTEX_POINT('',#870);
#261=VERTEX_POINT('',#872);
#262=VERTEX_POINT('',#874);
#263=VERTEX_POINT('',#876);
#264=VERTEX_POINT('',#878);
#265=VERTEX_POINT('',#880);
#266=VERTEX_POINT('',#884);
#267=VERTEX_POINT('',#888);
#268=VERTEX_POINT('',#890);
#269=VERTEX_POINT('',#892);
#270=VERTEX_POINT('',#896);
#271=VERTEX_POINT('',#897);
#272=VERTEX_POINT('',#904);
#273=VERTEX_POINT('',#906);
#274=VERTEX_POINT('',#908);
#275=VERTEX_POINT('',#912);
#276=VERTEX_POINT('',#914);
#277=VERTEX_POINT('',#918);
#278=VERTEX_POINT('',#922);
#279=VERTEX_POINT('',#926);
#280=VERTEX_POINT('',#930);
#281=VERTEX_POINT('',#931);
#282=VERTEX_POINT('',#933);
#283=VERTEX_POINT('',#935);
#284=VERTEX_POINT('',#937);
#285=VERTEX_POINT('',#939);
#286=VERTEX_POINT('',#941);
#287=VERTEX_POINT('',#948);
#288=VERTEX_POINT('',#956);
#289=VERTEX_POINT('',#958);
#290=VERTEX_POINT('',#973);
#291=VERTEX_POINT('',#981);
#292=VERTEX_POINT('',#982);
#293=VERTEX_POINT('',#989);
#294=VERTEX_POINT('',#997);
#295=VERTEX_POINT('',#999);
#296=VERTEX_POINT('',#1007);
#297=VERTEX_POINT('',#1014);
#298=VERTEX_POINT('',#1016);
#299=VERTEX_POINT('',#1018);
#300=VERTEX_POINT('',#1020);
#301=EDGE_CURVE('',#245,#245,#219,.T.);
#302=EDGE_CURVE('',#245,#246,#119,.T.);
#303=EDGE_CURVE('',#246,#246,#220,.T.);
#304=EDGE_CURVE('',#247,#247,#221,.T.);
#305=EDGE_CURVE('',#248,#248,#222,.T.);
#306=EDGE_CURVE('',#248,#249,#120,.T.);
#307=EDGE_CURVE('',#249,#249,#223,.T.);
#308=EDGE_CURVE('',#250,#250,#224,.T.);
#309=EDGE_CURVE('',#250,#251,#121,.T.);
#310=EDGE_CURVE('',#252,#251,#225,.T.);
#311=EDGE_CURVE('',#253,#252,#122,.T.);
#312=EDGE_CURVE('',#254,#253,#226,.T.);
#313=EDGE_CURVE('',#254,#247,#123,.T.);
#314=EDGE_CURVE('',#255,#254,#227,.T.);
#315=EDGE_CURVE('',#256,#255,#124,.T.);
#316=EDGE_CURVE('',#251,#256,#228,.T.);
#317=EDGE_CURVE('',#257,#253,#125,.T.);
#318=EDGE_CURVE('',#258,#257,#229,.T.);
#319=EDGE_CURVE('',#255,#258,#126,.T.);
#320=EDGE_CURVE('',#252,#259,#127,.T.);
#321=EDGE_CURVE('',#259,#260,#128,.T.);
#322=EDGE_CURVE('',#261,#260,#129,.T.);
#323=EDGE_CURVE('',#262,#261,#230,.T.);
#324=EDGE_CURVE('',#263,#262,#130,.T.);
#325=EDGE_CURVE('',#264,#263,#231,.T.);
#326=EDGE_CURVE('',#265,#264,#131,.T.);
#327=EDGE_CURVE('',#265,#257,#132,.T.);
#328=EDGE_CURVE('',#258,#266,#133,.T.);
#329=EDGE_CURVE('',#266,#265,#232,.T.);
#330=EDGE_CURVE('',#267,#264,#134,.T.);
#331=EDGE_CURVE('',#267,#268,#135,.T.);
#332=EDGE_CURVE('',#268,#269,#136,.T.);
#333=EDGE_CURVE('',#269,#266,#137,.T.);
#334=EDGE_CURVE('',#270,#271,#138,.T.);
#335=EDGE_CURVE('',#260,#270,#233,.T.);
#336=EDGE_CURVE('',#271,#259,#234,.T.);
#337=EDGE_CURVE('',#271,#256,#139,.T.);
#338=EDGE_CURVE('',#272,#269,#235,.T.);
#339=EDGE_CURVE('',#273,#272,#140,.T.);
#340=EDGE_CURVE('',#274,#273,#236,.T.);
#341=EDGE_CURVE('',#270,#274,#141,.T.);
#342=EDGE_CURVE('',#275,#272,#142,.T.);
#343=EDGE_CURVE('',#275,#276,#143,.T.);
#344=EDGE_CURVE('',#276,#273,#144,.T.);
#345=EDGE_CURVE('',#276,#277,#237,.T.);
#346=EDGE_CURVE('',#277,#274,#145,.T.);
#347=EDGE_CURVE('',#277,#278,#146,.T.);
#348=EDGE_CURVE('',#278,#261,#147,.T.);
#349=EDGE_CURVE('',#278,#279,#238,.T.);
#350=EDGE_CURVE('',#279,#262,#148,.T.);
#351=EDGE_CURVE('',#280,#281,#149,.T.);
#352=EDGE_CURVE('',#282,#280,#239,.T.);
#353=EDGE_CURVE('',#283,#282,#150,.T.);
#354=EDGE_CURVE('',#284,#283,#240,.T.);
#355=EDGE_CURVE('',#285,#284,#151,.T.);
#356=EDGE_CURVE('',#286,#285,#23,.T.);
#357=EDGE_CURVE('',#287,#286,#24,.T.);
#358=EDGE_CURVE('',#288,#287,#152,.T.);
#359=EDGE_CURVE('',#289,#288,#25,.T.);
#360=EDGE_CURVE('',#281,#289,#26,.T.);
#361=EDGE_CURVE('',#268,#275,#241,.T.);
#362=EDGE_CURVE('',#290,#267,#242,.T.);
#363=EDGE_CURVE('',#279,#290,#153,.T.);
#364=EDGE_CURVE('',#290,#263,#154,.T.);
#365=EDGE_CURVE('',#291,#292,#27,.F.);
#366=EDGE_CURVE('',#292,#293,#28,.F.);
#367=EDGE_CURVE('',#293,#294,#155,.F.);
#368=EDGE_CURVE('',#294,#295,#29,.F.);
#369=EDGE_CURVE('',#295,#296,#30,.F.);
#370=EDGE_CURVE('',#296,#297,#156,.F.);
#371=EDGE_CURVE('',#297,#298,#243,.F.);
#372=EDGE_CURVE('',#298,#299,#157,.F.);
#373=EDGE_CURVE('',#299,#300,#244,.F.);
#374=EDGE_CURVE('',#300,#291,#158,.F.);
#375=EDGE_CURVE('',#284,#297,#159,.T.);
#376=EDGE_CURVE('',#285,#296,#160,.T.);
#377=EDGE_CURVE('',#283,#298,#161,.T.);
#378=EDGE_CURVE('',#282,#299,#162,.T.);
#379=EDGE_CURVE('',#280,#300,#163,.T.);
#380=EDGE_CURVE('',#281,#291,#164,.T.);
#381=EDGE_CURVE('',#289,#292,#165,.T.);
#382=EDGE_CURVE('',#286,#295,#166,.T.);
#383=EDGE_CURVE('',#288,#293,#167,.T.);
#384=EDGE_CURVE('',#287,#294,#168,.T.);
#385=ORIENTED_EDGE('',*,*,#301,.F.);
#386=ORIENTED_EDGE('',*,*,#302,.T.);
#387=ORIENTED_EDGE('',*,*,#303,.F.);
#388=ORIENTED_EDGE('',*,*,#302,.F.);
#389=ORIENTED_EDGE('',*,*,#303,.T.);
#390=ORIENTED_EDGE('',*,*,#304,.F.);
#391=ORIENTED_EDGE('',*,*,#305,.F.);
#392=ORIENTED_EDGE('',*,*,#306,.T.);
#393=ORIENTED_EDGE('',*,*,#307,.T.);
#394=ORIENTED_EDGE('',*,*,#306,.F.);
#395=ORIENTED_EDGE('',*,*,#307,.F.);
#396=ORIENTED_EDGE('',*,*,#308,.F.);
#397=ORIENTED_EDGE('',*,*,#308,.T.);
#398=ORIENTED_EDGE('',*,*,#309,.T.);
#399=ORIENTED_EDGE('',*,*,#310,.F.);
#400=ORIENTED_EDGE('',*,*,#311,.F.);
#401=ORIENTED_EDGE('',*,*,#312,.F.);
#402=ORIENTED_EDGE('',*,*,#313,.T.);
#403=ORIENTED_EDGE('',*,*,#304,.T.);
#404=ORIENTED_EDGE('',*,*,#313,.F.);
#405=ORIENTED_EDGE('',*,*,#314,.F.);
#406=ORIENTED_EDGE('',*,*,#315,.F.);
#407=ORIENTED_EDGE('',*,*,#316,.F.);
#408=ORIENTED_EDGE('',*,*,#309,.F.);
#409=ORIENTED_EDGE('',*,*,#314,.T.);
#410=ORIENTED_EDGE('',*,*,#312,.T.);
#411=ORIENTED_EDGE('',*,*,#317,.F.);
#412=ORIENTED_EDGE('',*,*,#318,.F.);
#413=ORIENTED_EDGE('',*,*,#319,.F.);
#414=ORIENTED_EDGE('',*,*,#311,.T.);
#415=ORIENTED_EDGE('',*,*,#320,.T.);
#416=ORIENTED_EDGE('',*,*,#321,.T.);
#417=ORIENTED_EDGE('',*,*,#322,.F.);
#418=ORIENTED_EDGE('',*,*,#323,.F.);
#419=ORIENTED_EDGE('',*,*,#324,.F.);
#420=ORIENTED_EDGE('',*,*,#325,.F.);
#421=ORIENTED_EDGE('',*,*,#326,.F.);
#422=ORIENTED_EDGE('',*,*,#327,.T.);
#423=ORIENTED_EDGE('',*,*,#317,.T.);
#424=ORIENTED_EDGE('',*,*,#328,.F.);
#425=ORIENTED_EDGE('',*,*,#318,.T.);
#426=ORIENTED_EDGE('',*,*,#327,.F.);
#427=ORIENTED_EDGE('',*,*,#329,.F.);
#428=ORIENTED_EDGE('',*,*,#329,.T.);
#429=ORIENTED_EDGE('',*,*,#326,.T.);
#430=ORIENTED_EDGE('',*,*,#330,.F.);
#431=ORIENTED_EDGE('',*,*,#331,.T.);
#432=ORIENTED_EDGE('',*,*,#332,.T.);
#433=ORIENTED_EDGE('',*,*,#333,.T.);
#434=ORIENTED_EDGE('',*,*,#334,.F.);
#435=ORIENTED_EDGE('',*,*,#335,.F.);
#436=ORIENTED_EDGE('',*,*,#321,.F.);
#437=ORIENTED_EDGE('',*,*,#336,.F.);
#438=ORIENTED_EDGE('',*,*,#310,.T.);
#439=ORIENTED_EDGE('',*,*,#316,.T.);
#440=ORIENTED_EDGE('',*,*,#337,.F.);
#441=ORIENTED_EDGE('',*,*,#336,.T.);
#442=ORIENTED_EDGE('',*,*,#320,.F.);
#443=ORIENTED_EDGE('',*,*,#315,.T.);
#444=ORIENTED_EDGE('',*,*,#319,.T.);
#445=ORIENTED_EDGE('',*,*,#328,.T.);
#446=ORIENTED_EDGE('',*,*,#333,.F.);
#447=ORIENTED_EDGE('',*,*,#338,.F.);
#448=ORIENTED_EDGE('',*,*,#339,.F.);
#449=ORIENTED_EDGE('',*,*,#340,.F.);
#450=ORIENTED_EDGE('',*,*,#341,.F.);
#451=ORIENTED_EDGE('',*,*,#334,.T.);
#452=ORIENTED_EDGE('',*,*,#337,.T.);
#453=ORIENTED_EDGE('',*,*,#339,.T.);
#454=ORIENTED_EDGE('',*,*,#342,.F.);
#455=ORIENTED_EDGE('',*,*,#343,.T.);
#456=ORIENTED_EDGE('',*,*,#344,.T.);
#457=ORIENTED_EDGE('',*,*,#340,.T.);
#458=ORIENTED_EDGE('',*,*,#344,.F.);
#459=ORIENTED_EDGE('',*,*,#345,.T.);
#460=ORIENTED_EDGE('',*,*,#346,.T.);
#461=ORIENTED_EDGE('',*,*,#335,.T.);
#462=ORIENTED_EDGE('',*,*,#341,.T.);
#463=ORIENTED_EDGE('',*,*,#346,.F.);
#464=ORIENTED_EDGE('',*,*,#347,.T.);
#465=ORIENTED_EDGE('',*,*,#348,.T.);
#466=ORIENTED_EDGE('',*,*,#322,.T.);
#467=ORIENTED_EDGE('',*,*,#323,.T.);
#468=ORIENTED_EDGE('',*,*,#348,.F.);
#469=ORIENTED_EDGE('',*,*,#349,.T.);
#470=ORIENTED_EDGE('',*,*,#350,.T.);
#471=ORIENTED_EDGE('',*,*,#351,.F.);
#472=ORIENTED_EDGE('',*,*,#352,.F.);
#473=ORIENTED_EDGE('',*,*,#353,.F.);
#474=ORIENTED_EDGE('',*,*,#354,.F.);
#475=ORIENTED_EDGE('',*,*,#355,.F.);
#476=ORIENTED_EDGE('',*,*,#356,.F.);
#477=ORIENTED_EDGE('',*,*,#357,.F.);
#478=ORIENTED_EDGE('',*,*,#358,.F.);
#479=ORIENTED_EDGE('',*,*,#359,.F.);
#480=ORIENTED_EDGE('',*,*,#360,.F.);
#481=ORIENTED_EDGE('',*,*,#361,.F.);
#482=ORIENTED_EDGE('',*,*,#331,.F.);
#483=ORIENTED_EDGE('',*,*,#362,.F.);
#484=ORIENTED_EDGE('',*,*,#363,.F.);
#485=ORIENTED_EDGE('',*,*,#349,.F.);
#486=ORIENTED_EDGE('',*,*,#347,.F.);
#487=ORIENTED_EDGE('',*,*,#345,.F.);
#488=ORIENTED_EDGE('',*,*,#343,.F.);
#489=ORIENTED_EDGE('',*,*,#324,.T.);
#490=ORIENTED_EDGE('',*,*,#350,.F.);
#491=ORIENTED_EDGE('',*,*,#363,.T.);
#492=ORIENTED_EDGE('',*,*,#364,.T.);
#493=ORIENTED_EDGE('',*,*,#325,.T.);
#494=ORIENTED_EDGE('',*,*,#364,.F.);
#495=ORIENTED_EDGE('',*,*,#362,.T.);
#496=ORIENTED_EDGE('',*,*,#330,.T.);
#497=ORIENTED_EDGE('',*,*,#338,.T.);
#498=ORIENTED_EDGE('',*,*,#332,.F.);
#499=ORIENTED_EDGE('',*,*,#361,.T.);
#500=ORIENTED_EDGE('',*,*,#342,.T.);
#501=ORIENTED_EDGE('',*,*,#365,.T.);
#502=ORIENTED_EDGE('',*,*,#366,.T.);
#503=ORIENTED_EDGE('',*,*,#367,.T.);
#504=ORIENTED_EDGE('',*,*,#368,.T.);
#505=ORIENTED_EDGE('',*,*,#369,.T.);
#506=ORIENTED_EDGE('',*,*,#370,.T.);
#507=ORIENTED_EDGE('',*,*,#371,.T.);
#508=ORIENTED_EDGE('',*,*,#372,.T.);
#509=ORIENTED_EDGE('',*,*,#373,.T.);
#510=ORIENTED_EDGE('',*,*,#374,.T.);
#511=ORIENTED_EDGE('',*,*,#355,.T.);
#512=ORIENTED_EDGE('',*,*,#375,.T.);
#513=ORIENTED_EDGE('',*,*,#370,.F.);
#514=ORIENTED_EDGE('',*,*,#376,.F.);
#515=ORIENTED_EDGE('',*,*,#354,.T.);
#516=ORIENTED_EDGE('',*,*,#377,.T.);
#517=ORIENTED_EDGE('',*,*,#371,.F.);
#518=ORIENTED_EDGE('',*,*,#375,.F.);
#519=ORIENTED_EDGE('',*,*,#353,.T.);
#520=ORIENTED_EDGE('',*,*,#378,.T.);
#521=ORIENTED_EDGE('',*,*,#372,.F.);
#522=ORIENTED_EDGE('',*,*,#377,.F.);
#523=ORIENTED_EDGE('',*,*,#305,.T.);
#524=ORIENTED_EDGE('',*,*,#352,.T.);
#525=ORIENTED_EDGE('',*,*,#379,.T.);
#526=ORIENTED_EDGE('',*,*,#373,.F.);
#527=ORIENTED_EDGE('',*,*,#378,.F.);
#528=ORIENTED_EDGE('',*,*,#351,.T.);
#529=ORIENTED_EDGE('',*,*,#380,.T.);
#530=ORIENTED_EDGE('',*,*,#374,.F.);
#531=ORIENTED_EDGE('',*,*,#379,.F.);
#532=ORIENTED_EDGE('',*,*,#360,.T.);
#533=ORIENTED_EDGE('',*,*,#381,.T.);
#534=ORIENTED_EDGE('',*,*,#365,.F.);
#535=ORIENTED_EDGE('',*,*,#380,.F.);
#536=ORIENTED_EDGE('',*,*,#356,.T.);
#537=ORIENTED_EDGE('',*,*,#376,.T.);
#538=ORIENTED_EDGE('',*,*,#369,.F.);
#539=ORIENTED_EDGE('',*,*,#382,.F.);
#540=ORIENTED_EDGE('',*,*,#359,.T.);
#541=ORIENTED_EDGE('',*,*,#383,.T.);
#542=ORIENTED_EDGE('',*,*,#366,.F.);
#543=ORIENTED_EDGE('',*,*,#381,.F.);
#544=ORIENTED_EDGE('',*,*,#358,.T.);
#545=ORIENTED_EDGE('',*,*,#384,.T.);
#546=ORIENTED_EDGE('',*,*,#367,.F.);
#547=ORIENTED_EDGE('',*,*,#383,.F.);
#548=ORIENTED_EDGE('',*,*,#301,.T.);
#549=ORIENTED_EDGE('',*,*,#357,.T.);
#550=ORIENTED_EDGE('',*,*,#382,.T.);
#551=ORIENTED_EDGE('',*,*,#368,.F.);
#552=ORIENTED_EDGE('',*,*,#384,.F.);
#553=CYLINDRICAL_SURFACE('',#610,3.00000000000001);
#554=CYLINDRICAL_SURFACE('',#615,3.00000000000001);
#555=CYLINDRICAL_SURFACE('',#620,1.35);
#556=CYLINDRICAL_SURFACE('',#630,3.5);
#557=CYLINDRICAL_SURFACE('',#633,3.5);
#558=CYLINDRICAL_SURFACE('',#641,7.125000310017);
#559=CYLINDRICAL_SURFACE('',#644,7.12500031001704);
#560=CYLINDRICAL_SURFACE('',#652,7.125000310017);
#561=CYLINDRICAL_SURFACE('',#653,7.12500031001);
#562=CYLINDRICAL_SURFACE('',#658,9.62500031001703);
#563=CYLINDRICAL_SURFACE('',#660,9.625000310017);
#564=ADVANCED_FACE('',(#52),#553,.F.);
#565=ADVANCED_FACE('',(#53,#31),#36,.F.);
#566=ADVANCED_FACE('',(#54),#554,.F.);
#567=ADVANCED_FACE('',(#55,#32),#37,.T.);
#568=ADVANCED_FACE('',(#56),#555,.F.);
#569=ADVANCED_FACE('',(#57),#38,.T.);
#570=ADVANCED_FACE('',(#58),#39,.F.);
#571=ADVANCED_FACE('',(#59),#556,.T.);
#572=ADVANCED_FACE('',(#60),#40,.T.);
#573=ADVANCED_FACE('',(#61),#557,.T.);
#574=ADVANCED_FACE('',(#62),#41,.F.);
#575=ADVANCED_FACE('',(#63),#42,.F.);
#576=ADVANCED_FACE('',(#64),#43,.T.);
#577=ADVANCED_FACE('',(#65),#558,.F.);
#578=ADVANCED_FACE('',(#66),#44,.T.);
#579=ADVANCED_FACE('',(#67),#559,.F.);
#580=ADVANCED_FACE('',(#68,#33),#45,.F.);
#581=ADVANCED_FACE('',(#69),#46,.T.);
#582=ADVANCED_FACE('',(#70),#560,.F.);
#583=ADVANCED_FACE('',(#71),#561,.F.);
#584=ADVANCED_FACE('',(#72),#47,.T.);
#585=ADVANCED_FACE('',(#73),#48,.F.);
#586=ADVANCED_FACE('',(#74),#562,.T.);
#587=ADVANCED_FACE('',(#75,#34),#49,.F.);
#588=ADVANCED_FACE('',(#76),#563,.T.);
#589=ADVANCED_FACE('',(#77),#50,.F.);
#590=ADVANCED_FACE('',(#78),#19,.F.);
#591=ADVANCED_FACE('',(#79),#20,.F.);
#592=ADVANCED_FACE('',(#80),#21,.F.);
#593=ADVANCED_FACE('',(#81,#35),#51,.F.);
#594=ADVANCED_FACE('',(#82),#22,.F.);
#595=CLOSED_SHELL('',(#564,#565,#566,#567,#568,#569,#570,#571,#572,#573,
#574,#575,#576,#577,#578,#579,#580,#581,#582,#583,#584,#585,#586,#587,#588,
#589,#590,#591,#592,#593,#594));
#596=DERIVED_UNIT_ELEMENT(#598,1.);
#597=DERIVED_UNIT_ELEMENT(#1097,-3.);
#598=(
MASS_UNIT()
NAMED_UNIT(*)
SI_UNIT(.KILO.,.GRAM.)
);
#599=DERIVED_UNIT((#596,#597));
#600=MEASURE_REPRESENTATION_ITEM('density measure',
POSITIVE_RATIO_MEASURE(7850.),#599);
#601=PROPERTY_DEFINITION_REPRESENTATION(#606,#603);
#602=PROPERTY_DEFINITION_REPRESENTATION(#607,#604);
#603=REPRESENTATION('material name',(#605),#1094);
#604=REPRESENTATION('density',(#600),#1094);
#605=DESCRIPTIVE_REPRESENTATION_ITEM('Steel','Steel');
#606=PROPERTY_DEFINITION('material property','material name',#1109);
#607=PROPERTY_DEFINITION('material property','density of part',#1109);
#608=AXIS2_PLACEMENT_3D('',#826,#664,#665);
#609=AXIS2_PLACEMENT_3D('',#827,#666,#667);
#610=AXIS2_PLACEMENT_3D('',#828,#668,#669);
#611=AXIS2_PLACEMENT_3D('',#830,#670,#671);
#612=AXIS2_PLACEMENT_3D('',#833,#673,#674);
#613=AXIS2_PLACEMENT_3D('',#834,#675,#676);
#614=AXIS2_PLACEMENT_3D('',#836,#677,#678);
#615=AXIS2_PLACEMENT_3D('',#837,#679,#680);
#616=AXIS2_PLACEMENT_3D('',#839,#681,#682);
#617=AXIS2_PLACEMENT_3D('',#842,#684,#685);
#618=AXIS2_PLACEMENT_3D('',#843,#686,#687);
#619=AXIS2_PLACEMENT_3D('',#845,#688,#689);
#620=AXIS2_PLACEMENT_3D('',#846,#690,#691);
#621=AXIS2_PLACEMENT_3D('',#850,#693,#694);
#622=AXIS2_PLACEMENT_3D('',#854,#696,#697);
#623=AXIS2_PLACEMENT_3D('',#857,#699,#700);
#624=AXIS2_PLACEMENT_3D('',#860,#702,#703);
#625=AXIS2_PLACEMENT_3D('',#861,#704,#705);
#626=AXIS2_PLACEMENT_3D('',#865,#707,#708);
#627=AXIS2_PLACEMENT_3D('',#867,#710,#711);
#628=AXIS2_PLACEMENT_3D('',#875,#715,#716);
#629=AXIS2_PLACEMENT_3D('',#879,#718,#719);
#630=AXIS2_PLACEMENT_3D('',#883,#722,#723);
#631=AXIS2_PLACEMENT_3D('',#886,#725,#726);
#632=AXIS2_PLACEMENT_3D('',#887,#727,#728);
#633=AXIS2_PLACEMENT_3D('',#895,#733,#734);
#634=AXIS2_PLACEMENT_3D('',#899,#736,#737);
#635=AXIS2_PLACEMENT_3D('',#900,#738,#739);
#636=AXIS2_PLACEMENT_3D('',#901,#740,#741);
#637=AXIS2_PLACEMENT_3D('',#903,#743,#744);
#638=AXIS2_PLACEMENT_3D('',#905,#745,#746);
#639=AXIS2_PLACEMENT_3D('',#909,#748,#749);
#640=AXIS2_PLACEMENT_3D('',#911,#751,#752);
#641=AXIS2_PLACEMENT_3D('',#917,#756,#757);
#642=AXIS2_PLACEMENT_3D('',#919,#758,#759);
#643=AXIS2_PLACEMENT_3D('',#921,#761,#762);
#644=AXIS2_PLACEMENT_3D('',#925,#765,#766);
#645=AXIS2_PLACEMENT_3D('',#927,#767,#768);
#646=AXIS2_PLACEMENT_3D('',#929,#770,#771);
#647=AXIS2_PLACEMENT_3D('',#934,#773,#774);
#648=AXIS2_PLACEMENT_3D('',#938,#776,#777);
#649=AXIS2_PLACEMENT_3D('',#972,#780,#781);
#650=AXIS2_PLACEMENT_3D('',#974,#782,#783);
#651=AXIS2_PLACEMENT_3D('',#976,#785,#786);
#652=AXIS2_PLACEMENT_3D('',#978,#788,#789);
#653=AXIS2_PLACEMENT_3D('',#979,#790,#791);
#654=AXIS2_PLACEMENT_3D('',#980,#792,#793);
#655=AXIS2_PLACEMENT_3D('',#1017,#796,#797);
#656=AXIS2_PLACEMENT_3D('',#1021,#799,#800);
#657=AXIS2_PLACEMENT_3D('',#1023,#802,#803);
#658=AXIS2_PLACEMENT_3D('',#1026,#806,#807);
#659=AXIS2_PLACEMENT_3D('',#1028,#809,#810);
#660=AXIS2_PLACEMENT_3D('',#1030,#812,#813);
#661=AXIS2_PLACEMENT_3D('',#1032,#815,#816);
#662=AXIS2_PLACEMENT_3D('',#1073,#821,#822);
#663=AXIS2_PLACEMENT_3D('',#1089,#824,#825);
#664=DIRECTION('axis',(0.,0.,1.));
#665=DIRECTION('refdir',(1.,0.,0.));
#666=DIRECTION('axis',(0.,0.,1.));
#667=DIRECTION('refdir',(1.,0.,0.));
#668=DIRECTION('center_axis',(6.21647187856196E-16,1.,0.));
#669=DIRECTION('ref_axis',(1.,-6.21647187856196E-16,0.));
#670=DIRECTION('center_axis',(1.22542201755931E-13,-1.,0.));
#671=DIRECTION('ref_axis',(1.,-6.21647187856196E-16,0.));
#672=DIRECTION('',(-6.21647187856196E-16,-1.,0.));
#673=DIRECTION('center_axis',(3.10823593928098E-16,1.,0.));
#674=DIRECTION('ref_axis',(1.,-3.10823593928098E-16,0.));
#675=DIRECTION('center_axis',(-3.10823593928098E-16,-1.,0.));
#676=DIRECTION('ref_axis',(1.,-3.10823593928098E-16,0.));
#677=DIRECTION('center_axis',(3.10823593928098E-16,1.,0.));
#678=DIRECTION('ref_axis',(1.,0.,0.));
#679=DIRECTION('center_axis',(0.,1.,0.));
#680=DIRECTION('ref_axis',(1.,0.,0.));
#681=DIRECTION('center_axis',(3.10823593928098E-16,1.,0.));
#682=DIRECTION('ref_axis',(1.,0.,0.));
#683=DIRECTION('',(0.,1.,0.));
#684=DIRECTION('center_axis',(3.10823593928098E-16,1.,0.));
#685=DIRECTION('ref_axis',(1.,-3.10823593928098E-16,0.));
#686=DIRECTION('center_axis',(-3.10823593928098E-16,-1.,0.));
#687=DIRECTION('ref_axis',(1.,-3.10823593928098E-16,0.));
#688=DIRECTION('center_axis',(-3.10823593928098E-16,-1.,0.));
#689=DIRECTION('ref_axis',(1.,0.,0.));
#690=DIRECTION('center_axis',(0.,1.,0.));
#691=DIRECTION('ref_axis',(1.,0.,0.));
#692=DIRECTION('',(0.,1.,0.));
#693=DIRECTION('center_axis',(-3.10823593928098E-16,-1.,0.));
#694=DIRECTION('ref_axis',(1.,0.,0.));
#695=DIRECTION('',(0.,-1.,0.));
#696=DIRECTION('center_axis',(3.10823593928098E-16,1.,0.));
#697=DIRECTION('ref_axis',(1.,0.,0.));
#698=DIRECTION('',(0.,1.,0.));
#699=DIRECTION('center_axis',(3.10823593928098E-16,1.,0.));
#700=DIRECTION('ref_axis',(1.,0.,0.));
#701=DIRECTION('',(0.,1.,0.));
#702=DIRECTION('center_axis',(-3.10823593928098E-16,-1.,0.));
#703=DIRECTION('ref_axis',(1.,0.,0.));
#704=DIRECTION('center_axis',(-3.10823593928098E-16,-1.,0.));
#705=DIRECTION('ref_axis',(1.,-3.10823593928098E-16,0.));
#706=DIRECTION('',(-1.,3.10823593928098E-16,0.));
#707=DIRECTION('center_axis',(3.10823593928098E-16,1.,0.));
#708=DIRECTION('ref_axis',(1.,-3.10823593928098E-16,0.));
#709=DIRECTION('',(-1.,3.10823593928098E-16,0.));
#710=DIRECTION('center_axis',(0.,0.,-1.));
#711=DIRECTION('ref_axis',(1.,0.,0.));
#712=DIRECTION('',(1.,-3.10823593928098E-16,0.));
#713=DIRECTION('',(0.,-1.,0.));
#714=DIRECTION('',(-1.,6.21647188741296E-16,0.));
#715=DIRECTION('center_axis',(0.,0.,-1.));
#716=DIRECTION('ref_axis',(0.999999999999999,-4.35228049852106E-8,0.));
#717=DIRECTION('',(4.14431458972031E-16,-1.,0.));
#718=DIRECTION('center_axis',(0.,0.,-1.));
#719=DIRECTION('ref_axis',(4.3511618300591E-8,0.999999999999999,0.));
#720=DIRECTION('',(1.,1.2246449618203E-13,0.));
#721=DIRECTION('',(-6.21647187856196E-16,-1.,0.));
#722=DIRECTION('center_axis',(6.21647187856196E-16,1.,0.));
#723=DIRECTION('ref_axis',(-1.83697019872103E-16,7.04340093947333E-32,1.));
#724=DIRECTION('',(6.21647187856196E-16,1.,0.));
#725=DIRECTION('center_axis',(-1.2246449618203E-13,1.,0.));
#726=DIRECTION('ref_axis',(1.,-6.21647187856196E-16,0.));
#727=DIRECTION('center_axis',(1.2246449618203E-13,-1.,0.));
#728=DIRECTION('ref_axis',(-1.,-1.2246449618203E-13,0.));
#729=DIRECTION('',(0.,0.,-1.));
#730=DIRECTION('',(-1.,-1.2246449618203E-13,0.));
#731=DIRECTION('',(0.,0.,-1.));
#732=DIRECTION('',(1.,1.2246449618203E-13,0.));
#733=DIRECTION('center_axis',(0.,1.,0.));
#734=DIRECTION('ref_axis',(-1.83697019872103E-16,0.,1.));
#735=DIRECTION('',(0.,1.,0.));
#736=DIRECTION('center_axis',(-6.21647188741296E-16,-1.,0.));
#737=DIRECTION('ref_axis',(1.,0.,0.));
#738=DIRECTION('center_axis',(3.10823593928098E-16,1.,0.));
#739=DIRECTION('ref_axis',(1.,-3.10823593928098E-16,0.));
#740=DIRECTION('center_axis',(-3.10823593928098E-16,-1.,0.));
#741=DIRECTION('ref_axis',(1.,-3.10823593928098E-16,0.));
#742=DIRECTION('',(1.,-3.10823593928098E-16,0.));
#743=DIRECTION('center_axis',(0.,0.,-1.));
#744=DIRECTION('ref_axis',(1.,0.,0.));
#745=DIRECTION('center_axis',(0.,0.,-1.));
#746=DIRECTION('ref_axis',(-0.999999999999999,4.35101448594458E-8,0.));
#747=DIRECTION('',(8.1642997417512E-14,1.,0.));
#748=DIRECTION('center_axis',(0.,0.,-1.));
#749=DIRECTION('ref_axis',(-4.35101922289168E-8,-0.999999999999999,0.));
#750=DIRECTION('',(-1.,6.21647188741296E-16,0.));
#751=DIRECTION('center_axis',(1.,-8.1642997417512E-14,0.));
#752=DIRECTION('ref_axis',(-8.1642997417512E-14,-1.,0.));
#753=DIRECTION('',(0.,0.,-1.));
#754=DIRECTION('',(-8.1642997417512E-14,-1.,0.));
#755=DIRECTION('',(0.,0.,-1.));
#756=DIRECTION('center_axis',(0.,0.,-1.));
#757=DIRECTION('ref_axis',(-4.35101922289168E-8,-0.999999999999999,0.));
#758=DIRECTION('center_axis',(0.,0.,1.));
#759=DIRECTION('ref_axis',(-4.35101922289168E-8,-0.999999999999999,0.));
#760=DIRECTION('',(0.,0.,-1.));
#761=DIRECTION('center_axis',(6.21647188741296E-16,1.,0.));
#762=DIRECTION('ref_axis',(1.,-6.21647188741296E-16,0.));
#763=DIRECTION('',(1.,-6.21647188741296E-16,0.));
#764=DIRECTION('',(0.,0.,-1.));
#765=DIRECTION('center_axis',(0.,0.,-1.));
#766=DIRECTION('ref_axis',(0.999999999999999,-4.35228049852106E-8,0.));
#767=DIRECTION('center_axis',(0.,0.,1.));
#768=DIRECTION('ref_axis',(0.999999999999999,-4.35228049852106E-8,0.));
#769=DIRECTION('',(0.,0.,-1.));
#770=DIRECTION('center_axis',(0.,0.,-1.));
#771=DIRECTION('ref_axis',(1.,0.,0.));
#772=DIRECTION('',(8.16429973399963E-14,1.,0.));
#773=DIRECTION('center_axis',(0.,0.,-1.));
#774=DIRECTION('ref_axis',(-3.22088439620407E-8,-0.999999999999999,0.));
#775=DIRECTION('',(-1.,3.10823593928098E-16,0.));
#776=DIRECTION('center_axis',(0.,0.,-1.));
#777=DIRECTION('ref_axis',(0.999999999999999,-3.22181806778443E-8,0.));
#778=DIRECTION('',(4.14431458578666E-16,-1.,0.));
#779=DIRECTION('',(1.,1.22542201755931E-13,0.));
#780=DIRECTION('center_axis',(0.,0.,1.));
#781=DIRECTION('ref_axis',(-0.999999999999999,4.35101448594458E-8,0.));
#782=DIRECTION('center_axis',(0.,0.,1.));
#783=DIRECTION('ref_axis',(4.3511618300591E-8,0.999999999999999,0.));
#784=DIRECTION('',(-4.14431458972031E-16,1.,0.));
#785=DIRECTION('center_axis',(-1.,-4.14431458972031E-16,0.));
#786=DIRECTION('ref_axis',(-4.14431458972031E-16,1.,0.));
#787=DIRECTION('',(0.,0.,-1.));
#788=DIRECTION('center_axis',(0.,0.,-1.));
#789=DIRECTION('ref_axis',(4.3511618300591E-8,0.999999999999999,0.));
#790=DIRECTION('center_axis',(0.,0.,-1.));
#791=DIRECTION('ref_axis',(-0.999999999999999,4.35101448594458E-8,0.));
#792=DIRECTION('center_axis',(0.,0.,-1.));
#793=DIRECTION('ref_axis',(1.,0.,0.));
#794=DIRECTION('',(-1.,-1.22542201755931E-13,0.));
#795=DIRECTION('',(-4.14431458578666E-16,1.,0.));
#796=DIRECTION('center_axis',(0.,0.,1.));
#797=DIRECTION('ref_axis',(0.999999999999999,-3.22181806778443E-8,0.));
#798=DIRECTION('',(1.,-3.10823593928098E-16,0.));
#799=DIRECTION('center_axis',(0.,0.,1.));
#800=DIRECTION('ref_axis',(-3.22088439620407E-8,-0.999999999999999,0.));
#801=DIRECTION('',(-8.16429973399963E-14,-1.,0.));
#802=DIRECTION('center_axis',(-1.,-4.14431458578666E-16,0.));
#803=DIRECTION('ref_axis',(-4.14431458578666E-16,1.,0.));
#804=DIRECTION('',(0.,0.,-1.));
#805=DIRECTION('',(0.,0.,-1.));
#806=DIRECTION('center_axis',(0.,0.,-1.));
#807=DIRECTION('ref_axis',(0.999999999999999,-3.22181806778443E-8,0.));
#808=DIRECTION('',(0.,0.,-1.));
#809=DIRECTION('center_axis',(3.10823593928098E-16,1.,0.));
#810=DIRECTION('ref_axis',(1.,-3.10823593928098E-16,0.));
#811=DIRECTION('',(0.,0.,-1.));
#812=DIRECTION('center_axis',(0.,0.,-1.));
#813=DIRECTION('ref_axis',(-3.22088439620407E-8,-0.999999999999999,0.));
#814=DIRECTION('',(0.,0.,-1.));
#815=DIRECTION('center_axis',(1.,-8.16429973399963E-14,0.));
#816=DIRECTION('ref_axis',(-8.16429973399963E-14,-1.,0.));
#817=DIRECTION('',(0.,0.,-1.));
#818=DIRECTION('',(0.,0.,-1.));
#819=DIRECTION('',(0.,0.,-1.));
#820=DIRECTION('',(0.,0.,-1.));
#821=DIRECTION('center_axis',(1.22542201755931E-13,-1.,0.));
#822=DIRECTION('ref_axis',(-1.,-1.22542201755931E-13,0.));
#823=DIRECTION('',(0.,0.,-1.));
#824=DIRECTION('',(0.,0.,1.));
#825=DIRECTION('',(1.,0.,0.));
#826=CARTESIAN_POINT('',(0.,0.,0.));
#827=CARTESIAN_POINT('',(0.,0.,0.));
#828=CARTESIAN_POINT('Origin',(128.587500042312,-28.4340223363131,-4.6));
#829=CARTESIAN_POINT('',(125.587500042312,-28.4340223363131,-4.6));
#830=CARTESIAN_POINT('Origin',(128.587500042312,-28.4340223363096,-4.6));
#831=CARTESIAN_POINT('',(125.587500042312,-31.4340223363131,-4.6));
#832=CARTESIAN_POINT('',(125.587500042312,-28.4340223363131,-4.6));
#833=CARTESIAN_POINT('Origin',(128.587500042312,-31.4340223363131,-4.6));
#834=CARTESIAN_POINT('Origin',(128.587500042312,-31.4340223363131,-4.6));
#835=CARTESIAN_POINT('',(127.237500042313,-31.4340223363131,-4.6));
#836=CARTESIAN_POINT('Origin',(128.587500042312,-31.4340223363131,-4.6));
#837=CARTESIAN_POINT('Origin',(128.587500042312,-133.449999999917,-4.6));
#838=CARTESIAN_POINT('',(125.587500042312,-133.449999999917,-4.6));
#839=CARTESIAN_POINT('Origin',(128.587500042312,-133.449999999917,-4.6));
#840=CARTESIAN_POINT('',(125.587500042312,-130.449999999917,-4.6));
#841=CARTESIAN_POINT('',(125.587500042312,-133.449999999917,-4.6));
#842=CARTESIAN_POINT('Origin',(128.587500042312,-130.449999999917,-4.6));
#843=CARTESIAN_POINT('Origin',(128.587500042312,-130.449999999917,-4.6));
#844=CARTESIAN_POINT('',(127.237500042312,-130.449999999917,-4.6));
#845=CARTESIAN_POINT('Origin',(128.587500042312,-130.449999999917,-4.6));
#846=CARTESIAN_POINT('Origin',(128.587500042312,-133.449999999917,-4.6));
#847=CARTESIAN_POINT('',(127.237500042312,-113.449999999917,-4.6));
#848=CARTESIAN_POINT('',(127.237500042312,-133.449999999917,-4.6));
#849=CARTESIAN_POINT('',(129.841493662711,-113.449999999917,-5.1));
#850=CARTESIAN_POINT('Origin',(128.587500042312,-113.449999999917,-4.6));
#851=CARTESIAN_POINT('',(129.841493662711,-48.4340223363131,-5.1));
#852=CARTESIAN_POINT('',(129.841493662711,-133.449999999917,-5.1));
#853=CARTESIAN_POINT('',(127.237500042312,-48.4340223363131,-4.6));
#854=CARTESIAN_POINT('Origin',(128.587500042312,-48.4340223363131,-4.6));
#855=CARTESIAN_POINT('',(127.237500042312,-133.449999999917,-4.6));
#856=CARTESIAN_POINT('',(127.333506421914,-48.4340223363131,-5.1));
#857=CARTESIAN_POINT('Origin',(128.587500042312,-48.4340223363131,-4.6));
#858=CARTESIAN_POINT('',(127.333506421914,-113.449999999917,-5.1));
#859=CARTESIAN_POINT('',(127.333506421914,-133.449999999917,-5.1));
#860=CARTESIAN_POINT('Origin',(128.587500042312,-113.449999999917,-4.6));
#861=CARTESIAN_POINT('Origin',(128.587500042312,-48.4340223363131,-4.6));
#862=CARTESIAN_POINT('',(132.05160165745,-48.4340223363131,-5.1));
#863=CARTESIAN_POINT('',(128.587500021154,-48.4340223363131,-5.1));
#864=CARTESIAN_POINT('',(125.123398427175,-48.4340223363131,-5.1));
#865=CARTESIAN_POINT('Origin',(128.587500042312,-48.4340223363131,-4.6));
#866=CARTESIAN_POINT('',(128.587500021154,-48.4340223363131,-5.1));
#867=CARTESIAN_POINT('Origin',(128.587499999995,-80.962499999955,-5.1));
#868=CARTESIAN_POINT('',(132.05160165745,-113.449999999917,-5.1));
#869=CARTESIAN_POINT('',(128.587500021154,-113.449999999917,-5.1));
#870=CARTESIAN_POINT('',(132.05160165745,-130.949999999917,-5.1));
#871=CARTESIAN_POINT('',(132.05160165745,-133.449999999917,-5.1));
#872=CARTESIAN_POINT('',(157.162499921885,-130.949999999917,-5.1));
#873=CARTESIAN_POINT('',(114.299999999997,-130.949999999917,-5.1));
#874=CARTESIAN_POINT('',(164.287499999997,-123.825,-5.1));
#875=CARTESIAN_POINT('Origin',(157.16249968998,-123.8249996899,-5.1));
#876=CARTESIAN_POINT('',(164.287499999997,-38.1000000781128,-5.1));
#877=CARTESIAN_POINT('',(164.287499999997,-102.393749999978,-5.1));
#878=CARTESIAN_POINT('',(157.1625,-30.974999999993,-5.1));
#879=CARTESIAN_POINT('Origin',(157.16249968998,-38.10000031001,-5.1));
#880=CARTESIAN_POINT('',(132.05160165745,-30.9749999999961,-5.1));
#881=CARTESIAN_POINT('',(142.874999999995,-30.9749999999948,-5.1));
#882=CARTESIAN_POINT('',(132.05160165745,-28.4340223363131,-5.1));
#883=CARTESIAN_POINT('Origin',(128.587500042312,-28.4340223363131,-4.6));
#884=CARTESIAN_POINT('',(125.123398427175,-30.9749999999969,-5.1));
#885=CARTESIAN_POINT('',(125.123398427175,-28.4340223363131,-5.1));
#886=CARTESIAN_POINT('Origin',(128.587500042312,-30.974999999993,-4.6));
#887=CARTESIAN_POINT('Origin',(157.1625,-30.974999999993,-0.0999999999999995));
#888=CARTESIAN_POINT('',(157.1625,-30.974999999993,-0.0999999999999995));
#889=CARTESIAN_POINT('',(157.1625,-30.974999999993,-0.0999999999999995));
#890=CARTESIAN_POINT('',(100.012500078113,-30.975,-0.0999999999999995));
#891=CARTESIAN_POINT('',(157.1625,-30.974999999993,-0.0999999999999995));
#892=CARTESIAN_POINT('',(100.012500078113,-30.975,-5.1));
#893=CARTESIAN_POINT('',(100.012500078113,-30.975,-0.0999999999999995));
#894=CARTESIAN_POINT('',(142.874999999995,-30.9749999999948,-5.1));
#895=CARTESIAN_POINT('Origin',(128.587500042312,-133.449999999917,-4.6));
#896=CARTESIAN_POINT('',(125.123398427175,-130.949999999917,-5.1));
#897=CARTESIAN_POINT('',(125.123398427175,-113.449999999917,-5.1));
#898=CARTESIAN_POINT('',(125.123398427175,-133.449999999917,-5.1));
#899=CARTESIAN_POINT('Origin',(128.587500042312,-130.949999999917,-4.6));
#900=CARTESIAN_POINT('Origin',(128.587500042312,-113.449999999917,-4.6));
#901=CARTESIAN_POINT('Origin',(128.587500042312,-113.449999999917,-4.6));
#902=CARTESIAN_POINT('',(128.587500021154,-113.449999999917,-5.1));
#903=CARTESIAN_POINT('Origin',(128.587499999995,-80.962499999955,-5.1));
#904=CARTESIAN_POINT('',(92.8875,-38.1000000000002,-5.1));
#905=CARTESIAN_POINT('Origin',(100.01250031001,-38.10000031001,-5.1));
#906=CARTESIAN_POINT('',(92.887499999993,-123.824999921865,-5.1));
#907=CARTESIAN_POINT('',(92.8874999999983,-59.5312499999762,-5.1));
#908=CARTESIAN_POINT('',(100.0125,-130.949999999917,-5.1));
#909=CARTESIAN_POINT('Origin',(100.01250031001,-123.8249996899,-5.1));
#910=CARTESIAN_POINT('',(114.299999999997,-130.949999999917,-5.1));
#911=CARTESIAN_POINT('Origin',(92.8875,-38.1000000000002,-0.0999999999999995));
#912=CARTESIAN_POINT('',(92.8875,-38.1000000000002,-0.0999999999999995));
#913=CARTESIAN_POINT('',(92.8875,-38.1000000000002,-0.0999999999999995));
#914=CARTESIAN_POINT('',(92.887499999993,-123.824999921865,-0.0999999999999995));
#915=CARTESIAN_POINT('',(92.8875,-38.1000000000002,-0.0999999999999995));
#916=CARTESIAN_POINT('',(92.887499999993,-123.824999921865,-0.0999999999999995));
#917=CARTESIAN_POINT('Origin',(100.01250031001,-123.8249996899,-0.0999999999999995));
#918=CARTESIAN_POINT('',(100.0125,-130.949999999917,-0.0999999999999995));
#919=CARTESIAN_POINT('Origin',(100.01250031001,-123.8249996899,-0.0999999999999995));
#920=CARTESIAN_POINT('',(100.0125,-130.949999999917,-0.0999999999999995));
#921=CARTESIAN_POINT('Origin',(100.0125,-130.949999999917,-0.0999999999999995));
#922=CARTESIAN_POINT('',(157.162499921885,-130.949999999917,-0.0999999999999995));
#923=CARTESIAN_POINT('',(100.0125,-130.949999999917,-0.0999999999999995));
#924=CARTESIAN_POINT('',(157.162499921885,-130.949999999917,-0.0999999999999995));
#925=CARTESIAN_POINT('Origin',(157.16249968998,-123.8249996899,-0.0999999999999995));
#926=CARTESIAN_POINT('',(164.287499999997,-123.825,-0.0999999999999995));
#927=CARTESIAN_POINT('Origin',(157.16249968998,-123.8249996899,-0.0999999999999995));
#928=CARTESIAN_POINT('',(164.287499999997,-123.825,-0.0999999999999995));
#929=CARTESIAN_POINT('Origin',(128.587499999995,-80.962499999955,-0.0999999999999995));
#930=CARTESIAN_POINT('',(90.387499999993,-123.825000003256,-0.0999999999999995));
#931=CARTESIAN_POINT('',(90.3875,-38.1,-0.0999999999999995));
#932=CARTESIAN_POINT('',(90.3874999999983,-59.5312499999759,-0.0999999999999995));
#933=CARTESIAN_POINT('',(100.0125,-133.449999999917,-0.0999999999999995));
#934=CARTESIAN_POINT('Origin',(100.01250031001,-123.8249996899,-0.0999999999999995));
#935=CARTESIAN_POINT('',(157.162500003255,-133.449999999917,-0.0999999999999995));
#936=CARTESIAN_POINT('',(114.299999999997,-133.449999999917,-0.0999999999999995));
#937=CARTESIAN_POINT('',(166.787499999997,-123.825,-0.0999999999999995));
#938=CARTESIAN_POINT('Origin',(157.16249968998,-123.8249996899,-0.0999999999999995));
#939=CARTESIAN_POINT('',(166.787499999997,-38.0999999967453,-0.0999999999999995));
#940=CARTESIAN_POINT('',(166.787499999997,-102.393749999978,-0.0999999999999995));
#941=CARTESIAN_POINT('',(166.784851271294,-37.8732708921312,-0.1));
#942=CARTESIAN_POINT('Ctrl Pts',(166.784851271294,-37.8732708921312,-0.1));
#943=CARTESIAN_POINT('Ctrl Pts',(166.785734140921,-37.9110522193262,-0.1));
#944=CARTESIAN_POINT('Ctrl Pts',(166.786396325201,-37.9488383884065,-0.1));
#945=CARTESIAN_POINT('Ctrl Pts',(166.78727925822,-38.0244166312475,-0.1));
#946=CARTESIAN_POINT('Ctrl Pts',(166.787499998224,-38.0622080751297,-0.1));
#947=CARTESIAN_POINT('Ctrl Pts',(166.787499999997,-38.0999998340104,-0.1));
#948=CARTESIAN_POINT('',(157.162499960831,-28.4340223363096,-0.1));
#949=CARTESIAN_POINT('Ctrl Pts',(157.162499960831,-28.4340223363096,-0.1));
#950=CARTESIAN_POINT('Ctrl Pts',(159.633820012256,-28.4340224008422,-0.1));
#951=CARTESIAN_POINT('Ctrl Pts',(162.094194386091,-29.4332426495623,-0.1));
#952=CARTESIAN_POINT('Ctrl Pts',(163.873625815128,-31.1715786438148,-0.1));
#953=CARTESIAN_POINT('Ctrl Pts',(165.653057244165,-32.9099146380673,-0.1));
#954=CARTESIAN_POINT('Ctrl Pts',(166.726381737753,-35.3711386291429,-0.1));
#955=CARTESIAN_POINT('Ctrl Pts',(166.784851271294,-37.8732708921312,-0.1));
#956=CARTESIAN_POINT('',(100.012499887517,-28.4340223363166,-0.1));
#957=CARTESIAN_POINT('',(147.138077648375,-28.4340223363109,-0.1));
#958=CARTESIAN_POINT('',(90.3901487254146,-37.8732710741297,-0.1));
#959=CARTESIAN_POINT('Ctrl Pts',(90.3901487254146,-37.8732710741297,-0.1));
#960=CARTESIAN_POINT('Ctrl Pts',(90.4486226915405,-35.3709475696131,-0.1));
#961=CARTESIAN_POINT('Ctrl Pts',(91.5219426871756,-32.9099147834609,-0.0999999999999971));
#962=CARTESIAN_POINT('Ctrl Pts',(93.3013741017943,-31.1715787538102,-0.0999999999999979));
#963=CARTESIAN_POINT('Ctrl Pts',(95.0808055164129,-29.4332427241595,-0.0999999999999986));
#964=CARTESIAN_POINT('Ctrl Pts',(97.541179829644,-28.434022450601,-0.1));
#965=CARTESIAN_POINT('Ctrl Pts',(100.012499887517,-28.4340223363166,-0.1));
#966=CARTESIAN_POINT('Ctrl Pts',(90.3875,-38.1,-0.100000000000002));
#967=CARTESIAN_POINT('Ctrl Pts',(90.3875000012875,-38.0622082959338,-0.100000000000002));
#968=CARTESIAN_POINT('Ctrl Pts',(90.3877207401656,-38.0244169068481,-0.100000000000002));
#969=CARTESIAN_POINT('Ctrl Pts',(90.3886036708699,-37.9488386693193,-0.100000000000002));
#970=CARTESIAN_POINT('Ctrl Pts',(90.3892658551805,-37.9110524507773,-0.100000000000002));
#971=CARTESIAN_POINT('Ctrl Pts',(90.3901487254146,-37.8732710741297,-0.100000000000002));
#972=CARTESIAN_POINT('Origin',(100.01250031001,-38.10000031001,-0.0999999999999995));
#973=CARTESIAN_POINT('',(164.287499999997,-38.1000000781128,-0.0999999999999995));
#974=CARTESIAN_POINT('Origin',(157.16249968998,-38.10000031001,-0.0999999999999995));
#975=CARTESIAN_POINT('',(164.287499999997,-123.825,-0.0999999999999995));
#976=CARTESIAN_POINT('Origin',(164.287499999997,-123.825,-0.0999999999999995));
#977=CARTESIAN_POINT('',(164.287499999997,-38.1000000781128,-0.0999999999999995));
#978=CARTESIAN_POINT('Origin',(157.16249968998,-38.10000031001,-0.0999999999999995));
#979=CARTESIAN_POINT('Origin',(100.01250031001,-38.10000031001,-0.0999999999999995));
#980=CARTESIAN_POINT('Origin',(128.587499999995,-80.962499999955,-9.1));
#981=CARTESIAN_POINT('',(90.3875,-38.1,-9.1));
#982=CARTESIAN_POINT('',(90.3901487254146,-37.8732710741297,-9.1));
#983=CARTESIAN_POINT('Ctrl Pts',(90.3901487254146,-37.8732710741297,-9.1));
#984=CARTESIAN_POINT('Ctrl Pts',(90.3892658551805,-37.9110524507773,-9.1));
#985=CARTESIAN_POINT('Ctrl Pts',(90.3886036708699,-37.9488386693193,-9.1));
#986=CARTESIAN_POINT('Ctrl Pts',(90.3877207401656,-38.0244169068481,-9.1));
#987=CARTESIAN_POINT('Ctrl Pts',(90.3875000012875,-38.0622082959339,-9.1));
#988=CARTESIAN_POINT('Ctrl Pts',(90.3875000000001,-38.1,-9.1));
#989=CARTESIAN_POINT('',(100.012499887517,-28.4340223363166,-9.1));
#990=CARTESIAN_POINT('Ctrl Pts',(100.012499887517,-28.4340223363166,-9.1));
#991=CARTESIAN_POINT('Ctrl Pts',(97.541179829644,-28.434022450601,-9.1));
#992=CARTESIAN_POINT('Ctrl Pts',(95.0808055164129,-29.4332427241595,-9.1));
#993=CARTESIAN_POINT('Ctrl Pts',(93.3013741017943,-31.1715787538102,-9.1));
#994=CARTESIAN_POINT('Ctrl Pts',(91.5219426871756,-32.9099147834609,-9.1));
#995=CARTESIAN_POINT('Ctrl Pts',(90.4486226915405,-35.3709475696131,-9.1));
#996=CARTESIAN_POINT('Ctrl Pts',(90.3901487254146,-37.8732710741297,-9.1));
#997=CARTESIAN_POINT('',(157.162499960831,-28.4340223363096,-9.1));
#998=CARTESIAN_POINT('',(142.87499998041,-28.4340223363114,-9.1));
#999=CARTESIAN_POINT('',(166.784851271294,-37.8732708921312,-9.1));
#1000=CARTESIAN_POINT('Ctrl Pts',(166.784851271294,-37.8732708921312,-9.1));
#1001=CARTESIAN_POINT('Ctrl Pts',(166.726381737753,-35.3711386291429,-9.1));
#1002=CARTESIAN_POINT('Ctrl Pts',(165.653057244165,-32.9099146380673,-9.1));
#1003=CARTESIAN_POINT('Ctrl Pts',(163.873625815128,-31.1715786438148,-9.1));
#1004=CARTESIAN_POINT('Ctrl Pts',(162.094194386091,-29.4332426495623,-9.1));
#1005=CARTESIAN_POINT('Ctrl Pts',(159.633820012256,-28.4340224008422,-9.1));
#1006=CARTESIAN_POINT('Ctrl Pts',(157.162499960831,-28.4340223363096,-9.1));
#1007=CARTESIAN_POINT('',(166.787499999997,-38.0999998340104,-9.1));
#1008=CARTESIAN_POINT('Ctrl Pts',(166.787499999997,-38.0999998340104,-9.1));
#1009=CARTESIAN_POINT('Ctrl Pts',(166.787499998242,-38.0625860005805,-9.1));
#1010=CARTESIAN_POINT('Ctrl Pts',(166.787283651037,-38.0251724666101,-9.1));
#1011=CARTESIAN_POINT('Ctrl Pts',(166.786409546845,-37.9495941149013,-9.1));
#1012=CARTESIAN_POINT('Ctrl Pts',(166.785742969685,-37.9114300355184,-9.1));
#1013=CARTESIAN_POINT('Ctrl Pts',(166.784851271294,-37.8732708921312,-9.1));
#1014=CARTESIAN_POINT('',(166.787499999997,-123.824999912327,-9.1));
#1015=CARTESIAN_POINT('',(166.787499999997,-102.393749999978,-9.1));
#1016=CARTESIAN_POINT('',(157.162500052077,-133.449999999917,-9.1));
#1017=CARTESIAN_POINT('Origin',(157.16249968998,-123.8249996899,-9.1));
#1018=CARTESIAN_POINT('',(100.0125,-133.449999999917,-9.1));
#1019=CARTESIAN_POINT('',(114.299999999997,-133.449999999917,-9.1));
#1020=CARTESIAN_POINT('',(90.387499999993,-123.825000003256,-9.1));
#1021=CARTESIAN_POINT('Origin',(100.01250031001,-123.8249996899,-9.1));
#1022=CARTESIAN_POINT('',(90.3874999999983,-59.5312499999759,-9.1));
#1023=CARTESIAN_POINT('Origin',(166.787499999997,-123.825,0.));
#1024=CARTESIAN_POINT('',(166.787499999997,-123.824999912327,10.606));
#1025=CARTESIAN_POINT('',(166.787499999997,-38.0999998340104,10.606));
#1026=CARTESIAN_POINT('Origin',(157.16249968998,-123.8249996899,0.));
#1027=CARTESIAN_POINT('',(157.162500052077,-133.449999999917,10.606));
#1028=CARTESIAN_POINT('Origin',(100.0125,-133.449999999917,0.));
#1029=CARTESIAN_POINT('',(100.0125,-133.449999999917,0.));
#1030=CARTESIAN_POINT('Origin',(100.01250031001,-123.8249996899,0.));
#1031=CARTESIAN_POINT('',(90.387499999993,-123.825000003256,0.));
#1032=CARTESIAN_POINT('Origin',(90.3875,-38.1,0.));
#1033=CARTESIAN_POINT('',(90.3875,-38.1,0.));
#1034=CARTESIAN_POINT('Ctrl Pts',(90.3901487254146,-37.8732710741297,10.606));
#1035=CARTESIAN_POINT('Ctrl Pts',(90.3901487254146,-37.8732710741297,-24.394));
#1036=CARTESIAN_POINT('Ctrl Pts',(90.3883829944337,-37.9488334214261,10.606));
#1037=CARTESIAN_POINT('Ctrl Pts',(90.3883829944337,-37.9488334214261,-24.394));
#1038=CARTESIAN_POINT('Ctrl Pts',(90.3875000001392,-38.0244168668742,10.606));
#1039=CARTESIAN_POINT('Ctrl Pts',(90.3875000001392,-38.0244168668742,-24.394));
#1040=CARTESIAN_POINT('Ctrl Pts',(90.3875,-38.100000312772,10.606));
#1041=CARTESIAN_POINT('Ctrl Pts',(90.3875,-38.100000312772,-24.394));
#1042=CARTESIAN_POINT('',(90.3901487254146,-37.8732710741297,10.606));
#1043=CARTESIAN_POINT('Ctrl Pts',(166.787499735219,-38.1022673343992,10.606));
#1044=CARTESIAN_POINT('Ctrl Pts',(166.787499735219,-38.1022673343992,-24.394));
#1045=CARTESIAN_POINT('Ctrl Pts',(166.787499911768,-38.1015115212696,10.606));
#1046=CARTESIAN_POINT('Ctrl Pts',(166.787499911768,-38.1015115212696,-24.394));
#1047=CARTESIAN_POINT('Ctrl Pts',(166.787500000028,-38.1007557081189,10.606));
#1048=CARTESIAN_POINT('Ctrl Pts',(166.787500000028,-38.1007557081189,-24.394));
#1049=CARTESIAN_POINT('Ctrl Pts',(166.787499999997,-38.0999998949683,10.606));
#1050=CARTESIAN_POINT('Ctrl Pts',(166.787499999997,-38.0999998949683,-24.394));
#1051=CARTESIAN_POINT('Ctrl Pts',(166.787499996925,-38.0244165276539,10.606));
#1052=CARTESIAN_POINT('Ctrl Pts',(166.787499996925,-38.0244165276539,-24.394));
#1053=CARTESIAN_POINT('Ctrl Pts',(166.786617001535,-37.9488331608295,10.606));
#1054=CARTESIAN_POINT('Ctrl Pts',(166.786617001535,-37.9488331608295,-24.394));
#1055=CARTESIAN_POINT('Ctrl Pts',(166.784851271294,-37.8732708921312,10.606));
#1056=CARTESIAN_POINT('Ctrl Pts',(166.784851271294,-37.8732708921312,-24.394));
#1057=CARTESIAN_POINT('',(166.784851271294,-37.8732708921312,10.606));
#1058=CARTESIAN_POINT('Ctrl Pts',(100.012499887517,-28.4340223363166,10.606));
#1059=CARTESIAN_POINT('Ctrl Pts',(100.012499887517,-28.4340223363166,-24.394));
#1060=CARTESIAN_POINT('Ctrl Pts',(97.541179829644,-28.434022450601,10.606));
#1061=CARTESIAN_POINT('Ctrl Pts',(97.541179829644,-28.434022450601,-24.394));
#1062=CARTESIAN_POINT('Ctrl Pts',(95.0808055164129,-29.4332427241595,10.606));
#1063=CARTESIAN_POINT('Ctrl Pts',(95.0808055164129,-29.4332427241595,-24.394));
#1064=CARTESIAN_POINT('Ctrl Pts',(93.3013741017943,-31.1715787538102,10.606));
#1065=CARTESIAN_POINT('Ctrl Pts',(93.3013741017943,-31.1715787538102,-24.394));
#1066=CARTESIAN_POINT('Ctrl Pts',(91.5219426871756,-32.9099147834609,10.606));
#1067=CARTESIAN_POINT('Ctrl Pts',(91.5219426871756,-32.9099147834609,-24.394));
#1068=CARTESIAN_POINT('Ctrl Pts',(90.4486226915405,-35.3709475696131,10.606));
#1069=CARTESIAN_POINT('Ctrl Pts',(90.4486226915405,-35.3709475696131,-24.394));
#1070=CARTESIAN_POINT('Ctrl Pts',(90.3901487254146,-37.8732710741297,10.606));
#1071=CARTESIAN_POINT('Ctrl Pts',(90.3901487254146,-37.8732710741297,-24.394));
#1072=CARTESIAN_POINT('',(100.012499887517,-28.4340223363166,10.606));
#1073=CARTESIAN_POINT('Origin',(157.162499960831,-28.4340223363096,10.606));
#1074=CARTESIAN_POINT('',(157.162499960831,-28.4340223363096,10.606));
#1075=CARTESIAN_POINT('Ctrl Pts',(166.784851271294,-37.8732708921312,10.606));
#1076=CARTESIAN_POINT('Ctrl Pts',(166.784851271294,-37.8732708921312,-24.394));
#1077=CARTESIAN_POINT('Ctrl Pts',(166.726381737753,-35.3711386291429,10.606));
#1078=CARTESIAN_POINT('Ctrl Pts',(166.726381737753,-35.3711386291429,-24.394));
#1079=CARTESIAN_POINT('Ctrl Pts',(165.653057244165,-32.9099146380673,10.606));
#1080=CARTESIAN_POINT('Ctrl Pts',(165.653057244165,-32.9099146380673,-24.394));
#1081=CARTESIAN_POINT('Ctrl Pts',(163.873625815128,-31.1715786438148,10.606));
#1082=CARTESIAN_POINT('Ctrl Pts',(163.873625815128,-31.1715786438148,-24.394));
#1083=CARTESIAN_POINT('Ctrl Pts',(162.094194386091,-29.4332426495623,10.606));
#1084=CARTESIAN_POINT('Ctrl Pts',(162.094194386091,-29.4332426495623,-24.394));
#1085=CARTESIAN_POINT('Ctrl Pts',(159.633820012256,-28.4340224008422,10.606));
#1086=CARTESIAN_POINT('Ctrl Pts',(159.633820012256,-28.4340224008422,-24.394));
#1087=CARTESIAN_POINT('Ctrl Pts',(157.162499960831,-28.4340223363096,10.606));
#1088=CARTESIAN_POINT('Ctrl Pts',(157.162499960831,-28.4340223363096,-24.394));
#1089=CARTESIAN_POINT('',(0.,0.,0.));
#1090=UNCERTAINTY_MEASURE_WITH_UNIT(LENGTH_MEASURE(0.01),#1096,
'DISTANCE_ACCURACY_VALUE',
'Maximum model space distance between geometric entities at asserted c
onnectivities');
#1091=UNCERTAINTY_MEASURE_WITH_UNIT(LENGTH_MEASURE(0.01),#1096,
'DISTANCE_ACCURACY_VALUE',
'Maximum model space distance between geometric entities at asserted c
onnectivities');
#1092=UNCERTAINTY_MEASURE_WITH_UNIT(LENGTH_MEASURE(0.01),#1096,
'DISTANCE_ACCURACY_VALUE',
'Maximum model space distance between geometric entities at asserted c
onnectivities');
#1093=(
GEOMETRIC_REPRESENTATION_CONTEXT(3)
GLOBAL_UNCERTAINTY_ASSIGNED_CONTEXT((#1090))
GLOBAL_UNIT_ASSIGNED_CONTEXT((#1096,#1098,#1099))
REPRESENTATION_CONTEXT('','3D')
);
#1094=(
GEOMETRIC_REPRESENTATION_CONTEXT(3)
GLOBAL_UNCERTAINTY_ASSIGNED_CONTEXT((#1091))
GLOBAL_UNIT_ASSIGNED_CONTEXT((#1096,#1098,#1099))
REPRESENTATION_CONTEXT('','3D')
);
#1095=(
GEOMETRIC_REPRESENTATION_CONTEXT(3)
GLOBAL_UNCERTAINTY_ASSIGNED_CONTEXT((#1092))
GLOBAL_UNIT_ASSIGNED_CONTEXT((#1096,#1098,#1099))
REPRESENTATION_CONTEXT('','3D')
);
#1096=(
LENGTH_UNIT()
NAMED_UNIT(*)
SI_UNIT(.MILLI.,.METRE.)
);
#1097=(
LENGTH_UNIT()
NAMED_UNIT(*)
SI_UNIT($,.METRE.)
);
#1098=(
NAMED_UNIT(*)
PLANE_ANGLE_UNIT()
SI_UNIT($,.RADIAN.)
);
#1099=(
NAMED_UNIT(*)
SI_UNIT($,.STERADIAN.)
SOLID_ANGLE_UNIT()
);
#1100=SHAPE_DEFINITION_REPRESENTATION(#1102,#1105);
#1101=SHAPE_DEFINITION_REPRESENTATION(#1103,#1106);
#1102=PRODUCT_DEFINITION_SHAPE('',$,#1108);
#1103=PRODUCT_DEFINITION_SHAPE('',$,#1109);
#1104=PRODUCT_DEFINITION_SHAPE($,$,#14);
#1105=SHAPE_REPRESENTATION('',(#608,#663),#1093);
#1106=SHAPE_REPRESENTATION('',(#609),#1094);
#1107=PRODUCT_DEFINITION_CONTEXT('part definition',#1115,'design');
#1108=PRODUCT_DEFINITION('Calculator 1','Calculator',#1110,#1107);
#1109=PRODUCT_DEFINITION('Bottom','Bottom',#1111,#1107);
#1110=PRODUCT_DEFINITION_FORMATION('',$,#1117);
#1111=PRODUCT_DEFINITION_FORMATION('',$,#1118);
#1112=PRODUCT_RELATED_PRODUCT_CATEGORY('Calculator','Calculator',(#1117));
#1113=PRODUCT_RELATED_PRODUCT_CATEGORY('Bottom','Bottom',(#1118));
#1114=APPLICATION_PROTOCOL_DEFINITION('international standard',
'automotive_design',2009,#1115);
#1115=APPLICATION_CONTEXT(
'Core Data for Automotive Mechanical Design Process');
#1116=PRODUCT_CONTEXT('part definition',#1115,'mechanical');
#1117=PRODUCT('Calculator 1','Calculator','KiCad electronic assembly',(#1116));
#1118=PRODUCT('Bottom','Bottom',$,(#1116));
#1119=PRESENTATION_STYLE_ASSIGNMENT((#1123));
#1120=PRESENTATION_STYLE_ASSIGNMENT((#1124));
#1121=PRESENTATION_STYLE_ASSIGNMENT((#1125));
#1122=PRESENTATION_STYLE_ASSIGNMENT((#1126));
#1123=SURFACE_STYLE_USAGE(.BOTH.,#1127);
#1124=SURFACE_STYLE_USAGE(.BOTH.,#1128);
#1125=SURFACE_STYLE_USAGE(.BOTH.,#1129);
#1126=SURFACE_STYLE_USAGE(.BOTH.,#1130);
#1127=SURFACE_SIDE_STYLE('',(#1131));
#1128=SURFACE_SIDE_STYLE('',(#1132));
#1129=SURFACE_SIDE_STYLE('',(#1133));
#1130=SURFACE_SIDE_STYLE('',(#1134));
#1131=SURFACE_STYLE_FILL_AREA(#1135);
#1132=SURFACE_STYLE_FILL_AREA(#1136);
#1133=SURFACE_STYLE_FILL_AREA(#1137);
#1134=SURFACE_STYLE_FILL_AREA(#1138);
#1135=FILL_AREA_STYLE('Steel - Satin',(#1139));
#1136=FILL_AREA_STYLE('Opaque(211,212,213)',(#1140));
#1137=FILL_AREA_STYLE('ABS (White)',(#1141));
#1138=FILL_AREA_STYLE('ABS (White)',(#1142));
#1139=FILL_AREA_STYLE_COLOUR('Steel - Satin',#1143);
#1140=FILL_AREA_STYLE_COLOUR('Opaque(211,212,213)',#1144);
#1141=FILL_AREA_STYLE_COLOUR('ABS (White)',#1145);
#1142=FILL_AREA_STYLE_COLOUR('ABS (White)',#1146);
#1143=COLOUR_RGB('Steel - Satin',0.627450980392157,0.627450980392157,0.627450980392157);
#1144=COLOUR_RGB('Opaque(211,212,213)',0.827450980392157,0.831372549019608,
0.835294117647059);
#1145=COLOUR_RGB('ABS (White)',0.796078431372549,0.443137254901961,0.172549019607843);
#1146=COLOUR_RGB('ABS (White)',0.898039215686275,0.729411764705882,0.301960784313725);
ENDSEC;
END-ISO-10303-21;
